<svg id="SvgjsSvg1084" width="623" height="571" xmlns="http://www.w3.org/2000/svg" version="1.1" xmlns:xlink="http://www.w3.org/1999/xlink" xmlns:svgjs="http://svgjs.com/svgjs"><defs id="SvgjsDefs1085"><marker id="SvgjsMarker1122" markerWidth="16" markerHeight="12" refX="16" refY="6" viewBox="0 0 16 12" orient="auto" markerUnits="userSpaceOnUse" stroke-dasharray="0,0"><path id="SvgjsPath1123" d="M0,2 L14,6 L0,11 L0,2" fill="#323232" stroke="#323232" stroke-width="2"></path></marker><marker id="SvgjsMarker1126" markerWidth="16" markerHeight="12" refX="16" refY="6" viewBox="0 0 16 12" orient="auto" markerUnits="userSpaceOnUse" stroke-dasharray="0,0"><path id="SvgjsPath1127" d="M0,2 L14,6 L0,11 L0,2" fill="#323232" stroke="#323232" stroke-width="2"></path></marker></defs><g id="SvgjsG1086" transform="translate(26,220)"><path id="SvgjsPath1087" d="M 0 4Q 0 0 4 0L 237 0Q 241 0 241 4L 241 208Q 241 212 237 212L 4 212Q 0 212 0 208Z" stroke="rgba(50,50,50,1)" stroke-width="2" fill-opacity="1" fill="#ffffff"></path><path id="SvgjsPath1088" d="M 0 30L 241 30M 0 62L 241 62" stroke="rgba(50,50,50,1)" stroke-width="2" fill="none"></path><path id="SvgjsPath1089" d="M 0 0L 241 0L 241 212L 0 212Z" stroke="none" fill="none"></path><g id="SvgjsG1090"><text id="SvgjsText1091" font-family="微软雅黑" text-anchor="middle" font-size="13px" width="221px" fill="#323232" font-weight="700" align="middle" anchor="middle" family="微软雅黑" size="13px" weight="700" font-style="" opacity="1" y="5.05" transform="rotate(0)"><tspan id="SvgjsTspan1092" dy="16" x="120.5"><tspan id="SvgjsTspan1093" style="text-decoration:;">Rectangle</tspan></tspan></text></g><g id="SvgjsG1094"><text id="SvgjsText1095" font-family="微软雅黑" text-anchor="start" font-size="13px" width="221px" fill="#323232" font-weight="400" align="middle" anchor="start" family="微软雅黑" size="13px" weight="400" font-style="" opacity="1" y="28.05" transform="rotate(0)"><tspan id="SvgjsTspan1096" dy="16" x="10"><tspan id="SvgjsTspan1097" style="text-decoration:;">- length:double</tspan></tspan><tspan id="SvgjsTspan1098" dy="16" x="10"><tspan id="SvgjsTspan1099" style="text-decoration:;">- width:double</tspan></tspan></text></g><g id="SvgjsG1100"><text id="SvgjsText1101" font-family="微软雅黑" text-anchor="start" font-size="13px" width="221px" fill="#323232" font-weight="400" align="middle" anchor="start" family="微软雅黑" size="13px" weight="400" font-style="" opacity="1" y="60.05" transform="rotate(0)"><tspan id="SvgjsTspan1102" dy="16" x="10"><tspan id="SvgjsTspan1103" style="text-decoration:;">+ getPerimerter():double</tspan></tspan><tspan id="SvgjsTspan1104" dy="16" x="10"><tspan id="SvgjsTspan1105" style="text-decoration:;">+ getArea():double</tspan></tspan><tspan id="SvgjsTspan1106" dy="16" x="10"><tspan id="SvgjsTspan1107" style="text-decoration:;">+ initRectangle()</tspan></tspan><tspan id="SvgjsTspan1108" dy="16" x="10"><tspan id="SvgjsTspan1109" style="text-decoration:;">+ getWidth()</tspan></tspan><tspan id="SvgjsTspan1110" dy="16" x="10"><tspan id="SvgjsTspan1111" style="text-decoration:;">+ setWidth()</tspan></tspan><tspan id="SvgjsTspan1112" dy="16" x="10"><tspan id="SvgjsTspan1113" style="text-decoration:;">+ getLength()</tspan></tspan><tspan id="SvgjsTspan1114" dy="16" x="10"><tspan id="SvgjsTspan1115" style="text-decoration:;">+ setLength()</tspan></tspan><tspan id="SvgjsTspan1116" dy="16" x="10"><tspan id="SvgjsTspan1117" style="text-decoration:;">+ name()</tspan></tspan><tspan id="SvgjsTspan1118" dy="16" x="10"><tspan id="SvgjsTspan1119" style="text-decoration:;"> </tspan></tspan></text></g></g><g id="SvgjsG1120"><path id="SvgjsPath1121" d="M146.5 220L146.5 190L25 190L25 56L55 56" stroke="#323232" stroke-width="2" fill="none" marker-end="url(#SvgjsMarker1122)"></path></g><g id="SvgjsG1124"><path id="SvgjsPath1125" d="M368 515L317.5 515L317.5 326L267 326" stroke-dasharray="3,3" stroke="#323232" stroke-width="2" fill="none" marker-end="url(#SvgjsMarker1126)"></path></g><g id="SvgjsG1128" transform="translate(368,484)"><path id="SvgjsPath1129" d="M 0 4Q 0 0 4 0L 226 0Q 230 0 230 4L 230 58Q 230 62 226 62L 4 62Q 0 62 0 58Z" stroke="rgba(50,50,50,1)" stroke-width="2" fill-opacity="1" fill="#ffffff"></path><path id="SvgjsPath1130" d="M 0 30L 230 30" stroke="rgba(50,50,50,1)" stroke-width="2" fill="none"></path><path id="SvgjsPath1131" d="M 0 0L 230 0L 230 62L 0 62Z" stroke="none" fill="none"></path><g id="SvgjsG1132"><text id="SvgjsText1133" font-family="微软雅黑" text-anchor="middle" font-size="13px" width="210px" fill="#323232" font-weight="700" align="middle" anchor="middle" family="微软雅黑" size="13px" weight="700" font-style="" opacity="1" y="5.05" transform="rotate(0)"><tspan id="SvgjsTspan1134" dy="16" x="115"><tspan id="SvgjsTspan1135" style="text-decoration:;">RectangleTest</tspan></tspan></text></g><g id="SvgjsG1136"><text id="SvgjsText1137" font-family="微软雅黑" text-anchor="start" font-size="13px" width="210px" fill="#323232" font-weight="400" align="middle" anchor="start" family="微软雅黑" size="13px" weight="400" font-style="" opacity="1" y="28.05" transform="rotate(0)"><tspan id="SvgjsTspan1138" dy="16" x="10"><tspan id="SvgjsTspan1139" style="text-decoration:;">+ main()</tspan></tspan><tspan id="SvgjsTspan1140" dy="16" x="10"><tspan id="SvgjsTspan1141" style="text-decoration:;">+ getUserPrint(Scanner):double</tspan></tspan></text></g></g><g id="SvgjsG1142" transform="translate(55,25)"><path id="SvgjsPath1143" d="M 0 4Q 0 0 4 0L 226 0Q 230 0 230 4L 230 58Q 230 62 226 62L 4 62Q 0 62 0 58Z" stroke="rgba(50,50,50,1)" stroke-width="2" fill-opacity="1" fill="#ffffff"></path><path id="SvgjsPath1144" d="M 0 30L 230 30" stroke="rgba(50,50,50,1)" stroke-width="2" fill="none"></path><path id="SvgjsPath1145" d="M 0 0L 230 0L 230 62L 0 62Z" stroke="none" fill="none"></path><g id="SvgjsG1146"><text id="SvgjsText1147" font-family="微软雅黑" text-anchor="middle" font-size="13px" width="210px" fill="#323232" font-weight="700" align="middle" anchor="middle" family="微软雅黑" size="13px" weight="700" font-style="" opacity="1" y="5.05" transform="rotate(0)"><tspan id="SvgjsTspan1148" dy="16" x="115"><tspan id="SvgjsTspan1149" style="text-decoration:;">Shape</tspan></tspan></text></g><g id="SvgjsG1150"><text id="SvgjsText1151" font-family="微软雅黑" text-anchor="start" font-size="13px" width="210px" fill="#323232" font-weight="400" align="middle" anchor="start" family="微软雅黑" size="13px" weight="400" font-style="" opacity="1" y="28.05" transform="rotate(0)"><tspan id="SvgjsTspan1152" dy="16" x="10"><tspan id="SvgjsTspan1153" style="text-decoration:;">+ getPerimerter()</tspan></tspan><tspan id="SvgjsTspan1154" dy="16" x="10"><tspan id="SvgjsTspan1155" style="text-decoration:;">+ getArea() </tspan></tspan></text></g></g></svg>